<?xml version="1.0" encoding="iso-8859-1"?>
<!-- Generator: Adobe Illustrator 19.0.0, SVG Export Plug-In . SVG Version: 6.00 Build 0)  -->
<svg version="1.1" id="Layer_1" xmlns="http://www.w3.org/2000/svg" xmlns:xlink="http://www.w3.org/1999/xlink" x="0px" y="0px"
	 viewBox="0 0 512.001 512.001" style="enable-background:new 0 0 512.001 512.001;" xml:space="preserve">
<circle style="fill:#9AD14B;" cx="256.005" cy="256.004" r="246.855"/>
<path style="fill:#90BC42;" d="M126.308,385.694c-88.802-88.802-95.799-228.426-20.999-325.241
	c-8.286,6.401-16.258,13.399-23.858,20.999c-96.401,96.401-96.401,252.698,0,349.099s252.698,96.401,349.099,0
	c7.599-7.599,14.597-15.573,20.999-23.858C354.735,481.492,215.109,474.495,126.308,385.694z"/>
<path style="fill:#FFFFFF;" d="M472.353,265.15c-5.053,0-9.15-4.097-9.15-9.15c0-49.977-18.117-98.28-51.012-136.006
	c-32.582-37.366-77.333-61.873-126.01-69.005c-4.999-0.733-8.459-5.38-7.726-10.379s5.381-8.457,10.379-7.726
	c52.993,7.765,101.7,34.43,137.149,75.085c35.802,41.061,55.519,93.632,55.519,148.032
	C481.502,261.054,477.406,265.15,472.353,265.15z"/>
<path style="fill:#90BC42;" d="M286.187,393.239c-1.028,0-2.075-0.174-3.099-0.543c-17.468-6.289-36.707-6.289-54.174,0
	c-4.754,1.712-9.996-0.755-11.708-5.509c-1.712-4.754,0.755-9.996,5.509-11.708c21.465-7.728,45.107-7.728,66.571,0
	c4.754,1.712,7.221,6.954,5.509,11.708C293.453,390.916,289.936,393.239,286.187,393.239z"/>
<circle style="fill:#FFFFFF;" cx="256.005" cy="39.648" r="9.15"/>
<g>
	<path style="fill:#333333;" d="M256.001,0C114.842,0,0.001,114.841,0.001,256.001s114.841,256.001,256.001,256.001
		c141.158,0,255.999-114.841,255.999-256.001S397.159,0,256.001,0z M256.001,493.701c-131.069,0-237.702-106.631-237.702-237.7
		S124.932,18.299,256.001,18.299c131.068,0,237.7,106.632,237.7,237.702S387.069,493.701,256.001,493.701z"/>
	<path style="fill:#333333;" d="M367.204,309.676c5.053,0,9.15-4.097,9.15-9.15c0-5.053-4.097-9.15-9.15-9.15
		c-27.151,0-49.748,19.818-54.118,45.745H198.917c-4.37-25.927-26.967-45.745-54.118-45.745c-5.053,0-9.15,4.097-9.15,9.15
		c0,5.053,4.097,9.15,9.15,9.15c20.179,0,36.596,16.417,36.596,36.596s-16.417,36.596-36.596,36.596c-5.053,0-9.15,4.097-9.15,9.15
		s4.097,9.15,9.15,9.15c27.151,0,49.748-19.818,54.118-45.745h114.169c4.37,25.927,26.967,45.745,54.118,45.745
		c5.053,0,9.15-4.097,9.15-9.15s-4.097-9.15-9.15-9.15c-20.179,0-36.596-16.417-36.596-36.596
		C330.608,326.092,347.025,309.676,367.204,309.676z"/>
	<path style="fill:#333333;" d="M180.577,237.442c0-18.666-15.186-33.852-33.852-33.852s-33.852,15.186-33.852,33.852
		s15.186,33.852,33.852,33.852S180.577,256.108,180.577,237.442z"/>
	<path style="fill:#333333;" d="M365.277,203.59c-18.666,0-33.852,15.186-33.852,33.852s15.186,33.852,33.852,33.852
		s33.852-15.186,33.852-33.852S383.942,203.59,365.277,203.59z"/>
	<path style="fill:#333333;" d="M119.786,183.424c4.089,1.031,8.208,1.535,12.281,1.535c12.923,0,25.375-5.077,34.834-14.537
		c12.441-12.441,17.301-30.054,13.002-47.115c-1.235-4.9-6.208-7.872-11.108-6.636c-4.9,1.235-7.871,6.207-6.636,11.108
		c2.711,10.756-0.354,21.86-8.198,29.704c-7.843,7.844-18.947,10.906-29.704,8.198c-4.902-1.238-9.873,1.736-11.108,6.636
		C111.915,177.217,114.887,182.189,119.786,183.424z"/>
	<path style="fill:#333333;" d="M379.934,184.959c4.072,0,8.193-0.504,12.281-1.535c4.901-1.235,7.871-6.207,6.636-11.108
		c-1.235-4.9-6.206-7.871-11.108-6.636c-10.756,2.709-21.86-0.354-29.704-8.198c-7.844-7.843-10.907-18.947-8.198-29.704
		c1.235-4.9-1.736-9.873-6.636-11.108c-4.899-1.237-9.873,1.736-11.108,6.636c-4.299,17.061,0.561,34.673,13.002,47.115
		C354.56,179.882,367.01,184.96,379.934,184.959z"/>
</g>
<g>
	<path style="fill:#FFFFFF;" d="M373.44,238.819c-1.685,0.009-3.369-0.421-4.807-1.307c-3.26-2.012-4.988-6.223-4.082-9.945
		c1.081-4.439,5.696-7.604,10.223-6.863c3.094,0.506,5.924,2.638,7.121,5.554c1.454,3.544,0.377,7.966-2.544,10.445
		C377.719,238.089,375.58,238.807,373.44,238.819z"/>
	<path style="fill:#FFFFFF;" d="M158.732,238.786c-1.82,0.004-3.639-0.505-5.143-1.535c-3.143-2.153-4.66-6.419-3.584-10.073
		c1.84-6.242,9.668-8.433,14.577-4.32c1.216,1.019,2.182,2.344,2.716,3.842c1.277,3.589-0.002,7.932-3.022,10.256
		C162.701,238.168,160.717,238.781,158.732,238.786z"/>
</g>
<g>
</g>
<g>
</g>
<g>
</g>
<g>
</g>
<g>
</g>
<g>
</g>
<g>
</g>
<g>
</g>
<g>
</g>
<g>
</g>
<g>
</g>
<g>
</g>
<g>
</g>
<g>
</g>
<g>
</g>
</svg>
