<svg xmlns="http://www.w3.org/2000/svg" xmlns:xlink="http://www.w3.org/1999/xlink" version="1.1" xml:space="preserve" width="512" height="512"><rect id="backgroundrect" width="100%" height="100%" x="0" y="0" fill="none" stroke="none"/><style type="text/css">
	.st0{fill:#FFCE06;}
	.st1{fill:#221F1F;}
</style><g class="currentLayer"><title>Layer 1</title><path fill="#dadada" fill-opacity="1" stroke="#dadada" stroke-opacity="1" stroke-width="12" stroke-dasharray="none" stroke-linejoin="miter" stroke-linecap="butt" stroke-dashoffset="" fill-rule="nonzero" opacity="1" marker-start="" marker-mid="" marker-end="" d="M59.888888322309214,255.68519633122537 C59.888888322309214,146.75332984450174 147.86678838407215,58.518517990255596 256.4814798183474,58.518517990255596 C365.0961712526226,58.518517990255596 453.0740713143856,146.75332984450174 453.0740713143856,255.68519633122537 C453.0740713143856,364.6170628179489 365.0961712526226,452.85187467219504 256.4814798183474,452.85187467219504 C147.86678838407215,452.85187467219504 59.888888322309214,364.6170628179489 59.888888322309214,255.68519633122537 z" id="svg_8" class=""/><g id="svg_1" class="" filter="" opacity="0.9"><path class="st0" d="M256,457.5c-111.1,0-201.5-90.4-201.5-201.5c0-111.1,90.4-201.5,201.5-201.5S457.5,144.9,457.5,256   C457.5,367.1,367.1,457.5,256,457.5z M256,64.5C150.4,64.5,64.5,150.4,64.5,256c0,105.6,85.9,191.5,191.5,191.5   S447.5,361.6,447.5,256C447.5,150.4,361.6,64.5,256,64.5z" id="svg_2" filter="" opacity="0.9"/><g id="XMLID_344_" filter="" opacity="0.9"><g id="XMLID_345_" filter="" opacity="0.9"><path class="st1" d="M324.8,369.1c6,1,10.1-6,6.1-10.6c-17.4-20.2-44.5-33.1-74.9-33.1     c-30.4,0-57.5,13-74.9,33.1c-4,4.6,0.1,11.6,6.1,10.6c20.7-3.3,44-5.2,68.8-5.2C280.8,364,304.1,365.8,324.8,369.1z" id="XMLID_346_" filter="" opacity="0.9"/></g></g><g id="XMLID_337_" filter="" opacity="0.9"><g id="XMLID_341_" filter="" opacity="0.9"><g id="XMLID_342_" filter="" opacity="0.9"><path class="st1" d="M328.4,266.8c-1.4-0.7-3,0.5-2.7,2c2.4,11.8,14,20.8,28,20.8c14.1,0,25.7-9,28.1-20.8      c0.3-1.5-1.3-2.8-2.7-2c-7.2,4.1-16,6.5-25.4,6.5C344.3,273.2,335.6,270.9,328.4,266.8z" id="XMLID_343_" filter="" opacity="0.9"/></g></g><g id="XMLID_338_" filter="" opacity="0.9"><g id="XMLID_339_" filter="" opacity="0.9"><path class="st1" d="M132.9,266.8c-1.4-0.7-3,0.5-2.7,2c2.3,11.8,14,20.8,28.1,20.8c14.1,0,25.7-9,28-20.8      c0.3-1.5-1.3-2.8-2.7-2c-7.2,4.1-16,6.5-25.4,6.5C148.9,273.2,140.1,270.9,132.9,266.8z" id="XMLID_340_" filter="" opacity="0.9"/></g></g></g><g id="XMLID_332_" filter="" opacity="0.9"><g id="XMLID_335_" filter="" opacity="0.9"><path class="st1" d="M121,235.2c-1.1,0-2.2-0.3-3.3-0.9c-3-1.8-4-5.7-2.2-8.8c10.8-18.2,30.4-30.3,49.2-29.9     c3.5,0.1,6.4,3,6.3,6.5c-0.1,3.5-2.9,6.3-6.4,6.3c-0.2,0-0.4,0-0.6,0c-14.1,0-29.1,9.4-37.4,23.6     C125.3,234,123.2,235.2,121,235.2z" id="XMLID_336_" filter="" opacity="0.9"/></g><g id="XMLID_333_" filter="" opacity="0.9"><path class="st1" d="M391,235.2c-2.2,0-4.3-1.1-5.5-3.1c-8.4-14.2-23.4-23.6-37.5-23.6c-0.2,0-0.4,0-0.6,0     c-3.5,0-6.4-2.8-6.4-6.3c-0.1-3.5,2.8-6.5,6.3-6.5c18.5-0.4,38.4,11.7,49.2,29.9c1.8,3,0.8,7-2.3,8.8     C393.3,234.9,392.1,235.2,391,235.2z" id="XMLID_334_" filter="" opacity="0.9"/></g></g><g id="XMLID_329_" filter="" opacity="0.9"><g id="XMLID_330_" filter="" opacity="0.9"><path class="st1" d="M406.6,329.8c14.8,8.5,26.5,20.3,32.1,36.8c5.5,15.8,2.2,35.5-11.1,45.7     c-11.8,9-29.1,8.6-42.4,1.7c-21.6-11.2-36-37.6-44.6-59.4c-7.1-17.8-17-30.2-31.4-40.8c-3.3-2.4-1.4-7.6,2.6-7.2     C342,309.5,379.5,314.2,406.6,329.8z" id="XMLID_331_" filter="" opacity="0.9"/></g></g></g><path fill="none" fill-opacity="1" stroke="#dadada" stroke-opacity="1" stroke-width="12" stroke-dasharray="none" stroke-linejoin="miter" stroke-linecap="butt" stroke-dashoffset="" fill-rule="nonzero" opacity="1" marker-start="" marker-mid="" marker-end="" d="M58.77777999741914,255.2466272676043 C58.77777999741914,146.54072268758333 147.02322363292066,58.488934557360125 255.96821750066488,58.488934557360125 C364.9132013871856,58.488934557360125 452.41929587822034,149.51487948091764 452.41929587822034,258.2207940987279 C452.41929587822034,366.9266986787489 366.39189967611895,452.0043300156377 257.4469157895982,452.0043300156377 C148.5019219218541,452.0043300156377 58.77777999741914,363.9525418854146 58.77777999741914,255.2466272676043 z" id="svg_3" class=""/><path fill="#626060" fill-opacity="1" stroke="#626060" stroke-opacity="1" stroke-width="13" stroke-dasharray="none" stroke-linejoin="miter" stroke-linecap="butt" stroke-dashoffset="" fill-rule="nonzero" opacity="1" marker-start="" marker-mid="" marker-end="" d="M378.85565,363.57274C381.20353,357.75472 392.98523,380.07863 411.7436,380.07863C430.50197,380.07863 443.7553,346.74955 446.38791,368.66079C449.02052,390.57203 423.87362,414.22566 402.08145,409.82255C380.28928,405.41944 376.50777,369.39076 378.85565,363.57274z" id="svg_6" class="" transform="rotate(-49.193084716796875 411.6593017578124,387.1090698242187) " filter=""/></g><defs><filter id="f038" xmlns:inkscape="http://www.inkscape.org/namespaces/inkscape" inkscape:label="Button" x="0" y="0" width="1" height="1" inkscape:menu="Bevels" inkscape:menu-tooltip="Soft bevel, slightly depressed middle" color-interpolation-filters="sRGB">
            <feGaussianBlur stdDeviation="2.3" in="SourceAlpha" result="result0"/>
            <feMorphology in="SourceAlpha" radius="6.6" result="result1"/>
            <feGaussianBlur stdDeviation="8.9" in="result1"/>
            <feColorMatrix id="feColorMatrix2861" values="1 0 0 0 0 0 1 0 0 0 0 0 1 0 0 0 0 0 0.3 0" result="result91"/>
            <feComposite in="result0" operator="out" result="result2" in2="result91"/>
            <feGaussianBlur stdDeviation="1.7" result="result4"/>
            <feDiffuseLighting surfaceScale="10">
                <feDistantLight azimuth="225" elevation="45"/>
            </feDiffuseLighting>
            <feBlend id="feBlend2863" in2="SourceGraphic" mode="multiply"/>
            <feComposite in2="SourceAlpha" operator="in" result="result3"/>
            <feSpecularLighting in="result4" surfaceScale="5" specularExponent="17.9">
                <feDistantLight azimuth="225" elevation="45"/>
            </feSpecularLighting>
            <feComposite in2="result3" operator="atop"/>
        </filter></defs></svg>