<svg xmlns="http://www.w3.org/2000/svg" xmlns:xlink="http://www.w3.org/1999/xlink" style="enable-background:new 0 0 512 512;" version="1.1" xml:space="preserve" width="512" height="512"><rect id="backgroundrect" width="100%" height="100%" x="0" y="0" fill="none" stroke="none"/><style type="text/css">
	.st0{fill:#FFCE06;}
	.st1{fill:#221F1F;}
</style><g class="currentLayer"><title>Layer 1</title><path fill="#7ceb98" fill-opacity="1" stroke="#7ceb98" stroke-opacity="1" stroke-width="12" stroke-dasharray="none" stroke-linejoin="miter" stroke-linecap="butt" stroke-dashoffset="" fill-rule="nonzero" opacity="1" marker-start="" marker-mid="" marker-end="" d="M59.48820887129088,256.5185263970074 C59.48820887129088,149.56129009057753 146.7187529321803,62.925928682369296 254.41078263698205,62.925928682369296 C362.10281234178376,62.925928682369296 449.3333564026732,149.56129009057753 449.3333564026732,256.5185263970074 C449.3333564026732,363.4757627034373 362.10281234178376,450.11112411164555 254.41078263698205,450.11112411164555 C146.7187529321803,450.11112411164555 59.48820887129088,363.4757627034373 59.48820887129088,256.5185263970074 z" id="svg_3" class=""/><g id="svg_1" class="" opacity="0.9"><path class="st0" d="M256,457.5c-111.1,0-201.5-90.4-201.5-201.5c0-111.1,90.4-201.5,201.5-201.5c111.1,0,201.6,90.4,201.6,201.5   C457.5,367.1,367.1,457.5,256,457.5z M256,64.5C150.4,64.5,64.5,150.4,64.5,256c0,105.6,85.9,191.5,191.5,191.5   c105.6,0,191.6-85.9,191.6-191.5C447.5,150.4,361.6,64.5,256,64.5z" id="svg_2" opacity="0.9"/><g id="XMLID_450_" opacity="0.9"><g id="XMLID_454_" opacity="0.9"><g id="XMLID_455_" opacity="0.9"><path class="st1" d="M357.7,279.5c-0.6,0-1.2-0.1-1.8-0.3L314.2,267c-2.5-0.7-4.3-2.9-4.6-5.5      c-0.3-2.6,1.1-5.1,3.4-6.3c0,0,32.5-16.8,42.2-22c3.1-1.7,7-0.5,8.7,2.6c1.7,3.1,0.5,7-2.6,8.7c-5.5,2.9-18.1,9.5-28.1,14.7      l26.4,7.7c3.4,1,5.3,4.6,4.3,7.9C363.1,277.6,360.5,279.5,357.7,279.5z" id="XMLID_456_" opacity="0.9"/></g></g><g id="XMLID_451_" opacity="0.9"><g id="XMLID_452_" opacity="0.9"><path class="st1" d="M154.2,279.5c-2.8,0-5.3-1.8-6.1-4.6c-1-3.4,1-7,4.4-7.9l26.4-7.7      c-10-5.2-22.7-11.8-28.1-14.7c-3.1-1.7-4.3-5.5-2.6-8.7c1.7-3.1,5.5-4.3,8.7-2.6c9.7,5.2,42.2,22,42.2,22      c2.3,1.2,3.7,3.7,3.4,6.3c-0.3,2.6-2.1,4.8-4.6,5.5l-41.7,12.2C155.4,279.4,154.9,279.5,154.2,279.5z" id="XMLID_453_" opacity="0.9"/></g></g></g><g id="XMLID_445_" opacity="0.9"><g id="XMLID_448_" opacity="0.9"><path class="st1" d="M383.2,198.4c-0.3,0-0.7,0-1-0.1c-32-4.9-48-30.8-48.7-31.9c-1.8-3-0.9-7,2.2-8.8     c3-1.9,7-0.9,8.8,2.1l0,0c0.1,0.2,13.8,21.9,39.7,25.9c3.5,0.5,5.9,3.8,5.4,7.3C389.1,196.1,386.3,198.4,383.2,198.4z" id="XMLID_449_" opacity="0.9"/></g><g id="XMLID_446_" opacity="0.9"><path class="st1" d="M128.8,198.4c-3.1,0-5.8-2.3-6.3-5.4c-0.5-3.5,1.9-6.8,5.4-7.3c26.1-4,39.5-25.7,39.7-25.9     c1.8-3,5.8-4,8.8-2.2c3,1.8,4,5.8,2.2,8.8c-0.7,1.1-16.7,27-48.7,31.9C129.4,198.3,129.1,198.4,128.8,198.4z" id="XMLID_447_" opacity="0.9"/></g></g><g id="XMLID_443_" opacity="0.9"><path class="st1" d="M186.8,370c-2.4,0-4.8-0.9-6.6-2.7l-17.3-16.5c-3.8-3.7-4-9.8-0.3-13.6    c3.7-3.8,9.8-4,13.6-0.3l10.6,10.2l27.9-26.7c3.7-3.6,9.6-3.6,13.3,0l27.9,26.7l27.9-26.7c3.7-3.5,9.6-3.6,13.3,0l28,26.7    l10.7-10.2c3.8-3.7,9.9-3.5,13.6,0.3c3.7,3.8,3.5,9.9-0.3,13.6l-17.3,16.5c-3.7,3.5-9.6,3.5-13.3,0l-28-26.7l-27.9,26.7    c-3.7,3.5-9.6,3.5-13.3,0l-27.9-26.7l-27.9,26.7C191.6,369.1,189.2,370,186.8,370z" id="XMLID_444_" opacity="0.9"/></g></g><path fill="none" fill-opacity="1" stroke="#7ceb98" stroke-opacity="1" stroke-width="12" stroke-dasharray="none" stroke-linejoin="miter" stroke-linecap="butt" stroke-dashoffset="" fill-rule="nonzero" opacity="1" marker-start="" marker-mid="" marker-end="" d="M58.444444393228636,255.82592190437867 C58.444444393228636,147.2378287638714 146.62124183063304,59.2814733200605 255.48148558051503,59.2814733200605 C364.34172933039696,59.2814733200605 452.5185267678014,147.2378287638714 452.5185267678014,255.82592190437867 C452.5185267678014,364.41401504488596 364.34172933039696,452.37037048869684 255.48148558051503,452.37037048869684 C146.62124183063304,452.37037048869684 58.444444393228636,364.41401504488596 58.444444393228636,255.82592190437867 z" id="svg_6" class=""/></g></svg>