<svg xmlns="http://www.w3.org/2000/svg" xmlns:xlink="http://www.w3.org/1999/xlink" style="enable-background:new 0 0 512 512;" version="1.1" xml:space="preserve" width="512" height="512"><rect id="backgroundrect" width="100%" height="100%" x="0" y="0" fill="none" stroke="none"/><style type="text/css">
	.st0{fill:#FFCE06;}
	.st1{fill:#221F1F;}
	.st2{fill:#48B549;}
</style><g class="currentLayer"><title>Layer 1</title><path fill="#86bcff" fill-opacity="1" stroke="#86bcff" stroke-opacity="1" stroke-width="1" stroke-dasharray="none" stroke-linejoin="miter" stroke-linecap="butt" stroke-dashoffset="" fill-rule="nonzero" opacity="1" marker-start="" marker-mid="" marker-end="" d="M56.29630701428346,249.22651681638723 C56.29630701428346,138.89535162559835 145.49243673196617,49.5271078210594 255.61111539577198,49.5271078210594 C365.7297940595778,49.5271078210594 454.9259237772605,138.89535162559835 454.9259237772605,249.22651681638723 C454.9259237772605,359.557682007176 365.7297940595778,448.9259258117151 255.61111539577198,448.9259258117151 C145.49243673196617,448.9259258117151 56.29630701428346,359.557682007176 56.29630701428346,249.22651681638723 z" id="svg_3" class=""/><g id="svg_1" class="selected" opacity="0.9"><path class="st0" d="M256,450.7c-111.1,0-201.5-90.4-201.5-201.5C54.5,138,144.9,47.6,256,47.6c111.1,0,201.5,90.4,201.5,201.5   C457.5,360.3,367.1,450.7,256,450.7z M256,57.6c-105.6,0-191.5,85.9-191.5,191.5c0,105.6,85.9,191.5,191.5,191.5   s191.5-85.9,191.5-191.5C447.5,143.5,361.6,57.6,256,57.6z" id="svg_2" opacity="0.9"/><g id="XMLID_119_" opacity="0.9"><g id="XMLID_120_" opacity="0.9"><path class="st1" d="M331.9,328.6c-2.3,0-4.7-0.9-6.5-2.6c-16-14.9-37.8-23.6-61.3-24.5     c-26.1-1-51,7.9-68.3,24.4c-3.8,3.7-9.9,3.5-13.6-0.3c-3.7-3.8-3.5-9.9,0.3-13.6c21-20.1,51.1-30.9,82.3-29.7     c28.1,1.1,54.3,11.6,73.6,29.6c3.9,3.6,4.1,9.7,0.5,13.6C337.1,327.6,334.5,328.6,331.9,328.6z" id="XMLID_121_" opacity="0.9"/></g></g><g id="XMLID_58_" opacity="0.9"><g id="XMLID_64_" opacity="0.9"><g id="XMLID_113_" opacity="0.9"><g id="XMLID_117_" opacity="0.9"><path class="st1" d="M379.2,272.4c-0.6,0-1.2-0.1-1.8-0.3l-41.7-12.2c-2.5-0.7-4.3-2.9-4.6-5.5       c-0.3-2.6,1.1-5.1,3.4-6.3c0,0,32.5-16.8,42.2-22c3.1-1.7,7-0.5,8.7,2.6c1.7,3.1,0.5,7-2.6,8.7c-5.5,2.9-18.1,9.5-28.1,14.7       l26.4,7.7c3.4,1,5.3,4.5,4.4,7.9C384.5,270.6,382,272.4,379.2,272.4z" id="XMLID_118_" opacity="0.9"/></g></g><g id="XMLID_65_" opacity="0.9"><g id="XMLID_66_" opacity="0.9"><path class="st1" d="M143.7,272.4c-2.8,0-5.3-1.8-6.1-4.6c-1-3.4,1-7,4.4-7.9l26.4-7.7       c-10-5.2-22.7-11.8-28.1-14.7c-3.1-1.7-4.3-5.6-2.6-8.7c1.7-3.1,5.5-4.3,8.7-2.6c9.7,5.2,42.2,22,42.2,22       c2.3,1.2,3.7,3.7,3.4,6.3c-0.3,2.6-2.1,4.8-4.6,5.5l-41.7,12.2C144.9,272.3,144.3,272.4,143.7,272.4z" id="XMLID_67_" opacity="0.9"/></g></g></g><g id="XMLID_59_" opacity="0.9"><g id="XMLID_62_" opacity="0.9"><path class="st1" d="M388.7,204.1c-0.3,0-0.7,0-1-0.1c-32-4.9-48-30.8-48.7-32c-1.8-3-0.9-7,2.2-8.8      c3-1.8,7-0.9,8.8,2.2c0.2,0.4,13.9,21.9,39.7,25.9c3.5,0.5,5.9,3.8,5.4,7.3C394.5,201.9,391.8,204.1,388.7,204.1z" id="XMLID_63_" opacity="0.9"/></g><g id="XMLID_60_" opacity="0.9"><path class="st1" d="M134.2,204.1c-3.1,0-5.8-2.3-6.3-5.4c-0.5-3.5,1.9-6.8,5.4-7.3c26.1-4,39.5-25.7,39.7-25.9      c1.8-3,5.8-4,8.8-2.2c3,1.8,4,5.8,2.2,8.8c-0.7,1.1-16.7,27-48.7,32C134.9,204.1,134.5,204.1,134.2,204.1z" id="XMLID_61_" opacity="0.9"/></g></g></g><path class="st2" d="M233.4,464.4" id="XMLID_57_" opacity="0.9"/></g><path fill="none" fill-opacity="1" stroke="#86bcff" stroke-opacity="1" stroke-width="12" stroke-dasharray="none" stroke-linejoin="miter" stroke-linecap="butt" stroke-dashoffset="" fill-rule="nonzero" opacity="1" marker-start="" marker-mid="" marker-end="" d="M58.975342709182456,248.712850252487 C58.975342709182456,140.5023532208724 147.1908047514528,52.85185062526456 256.0987825814162,52.85185062526456 C365.00676041137956,52.85185062526456 453.22222245364986,140.5023532208724 453.22222245364986,248.712850252487 C453.22222245364986,356.92334728410157 365.00676041137956,444.5738498797094 256.0987825814162,444.5738498797094 C147.1908047514528,444.5738498797094 58.975342709182456,356.92334728410157 58.975342709182456,248.712850252487 z" id="svg_5" class=""/></g></svg>