<svg xmlns="http://www.w3.org/2000/svg" xmlns:xlink="http://www.w3.org/1999/xlink" style="enable-background:new 0 0 512 512;" version="1.1" xml:space="preserve" width="512" height="512"><rect id="backgroundrect" width="100%" height="100%" x="0" y="0" fill="none" stroke="none"/><style type="text/css">
	.st0{fill:#CF4727;}
	.st1{fill:#221F1F;}
</style><g class="currentLayer"><title>Layer 1</title><path fill="#ff7575" fill-opacity="1" stroke="#ff7575" stroke-opacity="1" stroke-width="12" stroke-dasharray="none" stroke-linejoin="round" stroke-linecap="butt" stroke-dashoffset="" fill-rule="nonzero" opacity="1" marker-start="" marker-mid="" marker-end="" d="M59.925926208496094,255.55555772781372 C59.925926208496094,147.53427550015527 146.99222202887194,60.03703689575195 254.48147612810135,60.03703689575195 C361.9707302273308,60.03703689575195 449.0370260477066,147.53427550015527 449.0370260477066,255.55555772781372 C449.0370260477066,363.57683995547217 361.9707302273308,451.0740785598755 254.48147612810135,451.0740785598755 C146.99222202887194,451.0740785598755 59.925926208496094,363.57683995547217 59.925926208496094,255.55555772781372 z" id="svg_3" class=""/><g id="svg_1" class="" opacity="0.9"><path class="st0" d="M256,457.5c-111.1,0-201.5-90.4-201.5-201.5c0-111.1,90.4-201.5,201.5-201.5c111.1,0,201.5,90.4,201.5,201.5   C457.5,367.1,367.1,457.5,256,457.5z M256,64.5C150.4,64.5,64.5,150.4,64.5,256c0,105.6,85.9,191.5,191.5,191.5   c105.6,0,191.5-85.9,191.5-191.5C447.5,150.4,361.6,64.5,256,64.5z" id="svg_2" opacity="0.9"/><g id="XMLID_432_" opacity="0.9"><g id="XMLID_437_" opacity="0.9"><g id="XMLID_438_" opacity="0.9"><g id="XMLID_439_" opacity="0.9"><path class="st1" d="M200.7,266.9c0,15.8-9,28.7-20.2,28.7c-11.1,0-20.2-12.8-20.2-28.7       c0-15.8,9-28.6,20.2-28.6C191.7,238.3,200.7,251.1,200.7,266.9z" id="XMLID_440_" opacity="0.9"/></g></g></g><g id="XMLID_433_" opacity="0.9"><g id="XMLID_434_" opacity="0.9"><g id="XMLID_435_" opacity="0.9"><path class="st1" d="M351.6,266.9c0,15.8-9,28.7-20.2,28.7c-11.1,0-20.2-12.8-20.2-28.7       c0-15.8,9-28.6,20.2-28.6C342.6,238.3,351.6,251.1,351.6,266.9z" id="XMLID_436_" opacity="0.9"/></g></g></g></g><g id="XMLID_425_" opacity="0.9"><g id="XMLID_429_" opacity="0.9"><g id="XMLID_430_" opacity="0.9"><path class="st1" d="M212.6,248.1c-2.4,0-4.6-1.6-5.3-4c-5.9-20.2-26.1-35.5-50.2-38.3c-3-0.3-5.2-3.1-4.9-6.1      c0.3-3,3.1-5.2,6.1-4.9c28.4,3.2,52.4,21.8,59.6,46.1c0.9,2.9-0.8,6-3.8,6.9C213.7,248,213.2,248.1,212.6,248.1z" id="XMLID_431_" opacity="0.9"/></g></g><g id="XMLID_426_" opacity="0.9"><g id="XMLID_427_" opacity="0.9"><path class="st1" d="M299.4,248.1c-0.5,0-1-0.1-1.6-0.2c-2.9-0.9-4.6-3.9-3.7-6.9c7.2-24.4,31.1-42.9,59.6-46.1      c3.1-0.4,5.8,1.8,6.1,4.9c0.3,3-1.8,5.8-4.9,6.1c-24.1,2.7-44.2,18.1-50.2,38.3C304,246.5,301.8,248.1,299.4,248.1z" id="XMLID_428_" opacity="0.9"/></g></g></g><g id="XMLID_422_" opacity="0.9"><g id="XMLID_423_" opacity="0.9"><path class="st1" d="M295.6,359.7c-2.2,0-4.4-0.8-6.1-2.4c-8.2-7.7-19.5-12.2-31.6-12.6     c-13.5-0.6-26.3,4-35.2,12.5c-3.6,3.4-9.2,3.3-12.6-0.3c-3.4-3.6-3.3-9.2,0.3-12.6c12.4-11.8,30-18.2,48.3-17.5     c16.4,0.6,31.8,6.8,43.1,17.4c3.6,3.4,3.8,9,0.4,12.6C300.3,358.7,297.9,359.7,295.6,359.7z" id="XMLID_424_" opacity="0.9"/></g></g></g><path fill="none" fill-opacity="1" stroke="none" stroke-opacity="1" stroke-width="1" stroke-dasharray="none" stroke-linejoin="miter" stroke-linecap="butt" stroke-dashoffset="" fill-rule="nonzero" opacity="0.9" marker-start="" marker-mid="" marker-end="" d="M65,158.5 C65,111.81491712707182 100.8011049723757,74 145,74 C189.1988950276243,74 225,111.81491712707182 225,158.5 C225,205.18508287292818 189.1988950276243,243 145,243 C100.8011049723757,243 65,205.18508287292818 65,158.5 Z" id="svg_4"/><path fill="none" fill-opacity="1" stroke="#ff7575" stroke-opacity="1" stroke-width="12" stroke-dasharray="none" stroke-linejoin="miter" stroke-linecap="butt" stroke-dashoffset="" fill-rule="nonzero" opacity="1" marker-start="" marker-mid="" marker-end="" d="M59.09108614895685,256.00001620855886 C59.09108614895685,147.7331779400449 146.95744661738664,60.037038942548534 255.43443485001603,60.037038942548534 C363.9114230826454,60.037038942548534 451.7777835510752,147.7331779400449 451.7777835510752,256.00001620855886 C451.7777835510752,364.26685447707285 363.9114230826454,451.9629934745692 255.43443485001603,451.9629934745692 C146.95744661738664,451.9629934745692 59.09108614895685,364.26685447707285 59.09108614895685,256.00001620855886 z" id="svg_6" class=""/></g></svg>