<svg xmlns="http://www.w3.org/2000/svg" xmlns:xlink="http://www.w3.org/1999/xlink" version="1.1" xml:space="preserve" width="512" height="512"><rect id="backgroundrect" width="100%" height="100%" x="0" y="0" fill="none" stroke="none"/><style type="text/css">
	.st0{fill:#FFCE06;}
	.st1{fill:#221F1F;}
</style><g class="currentLayer"><title>Layer 1</title><path fill="#d9c6e6" fill-opacity="1" stroke="#d9c6e6" stroke-opacity="1" stroke-width="12" stroke-dasharray="none" stroke-linejoin="miter" stroke-linecap="butt" stroke-dashoffset="" fill-rule="nonzero" opacity="1" marker-start="" marker-mid="" marker-end="" d="M59.18466302056666,255.68519633122537 C59.18466302056666,146.75332984450174 147.1625630823296,58.518517990255596 255.77725451660484,58.518517990255596 C364.39194595088003,58.518517990255596 452.36984601264305,146.75332984450174 452.36984601264305,255.68519633122537 C452.36984601264305,364.6170628179489 364.39194595088003,452.85187467219504 255.77725451660484,452.85187467219504 C147.1625630823296,452.85187467219504 59.18466302056666,364.6170628179489 59.18466302056666,255.68519633122537 z" id="svg_8" class=""/><g id="svg_1" class="" filter="" opacity="0.9"><path class="st0" d="M256,457.5c-111.1,0-201.5-90.4-201.5-201.5c0-111.1,90.4-201.5,201.5-201.5S457.5,144.9,457.5,256   C457.5,367.1,367.1,457.5,256,457.5z M256,64.5C150.4,64.5,64.5,150.4,64.5,256c0,105.6,85.9,191.5,191.5,191.5   S447.5,361.6,447.5,256C447.5,150.4,361.6,64.5,256,64.5z" id="svg_2" filter="" opacity="0.9"/><g id="XMLID_344_" filter="" opacity="0.9"><g id="XMLID_345_" filter="" opacity="0.9"><path class="st1" d="M324.8,369.1c6,1,10.1-6,6.1-10.6c-17.4-20.2-44.5-33.1-74.9-33.1     c-30.4,0-57.5,13-74.9,33.1c-4,4.6,0.1,11.6,6.1,10.6c20.7-3.3,44-5.2,68.8-5.2C280.8,364,304.1,365.8,324.8,369.1z" id="XMLID_346_" filter="" opacity="0.9"/></g></g><g id="XMLID_337_" filter="" opacity="0.9"><g id="XMLID_341_" filter="" opacity="0.9"><g id="XMLID_342_" filter="" opacity="0.9"><path class="st1" d="M328.4,266.8c-1.4-0.7-3,0.5-2.7,2c2.4,11.8,14,20.8,28,20.8c14.1,0,25.7-9,28.1-20.8      c0.3-1.5-1.3-2.8-2.7-2c-7.2,4.1-16,6.5-25.4,6.5C344.3,273.2,335.6,270.9,328.4,266.8z" id="XMLID_343_" filter="" opacity="0.9"/></g></g><g id="XMLID_338_" filter="" opacity="0.9"><g id="XMLID_339_" filter="" opacity="0.9"><path class="st1" d="M132.9,266.8c-1.4-0.7-3,0.5-2.7,2c2.3,11.8,14,20.8,28.1,20.8c14.1,0,25.7-9,28-20.8      c0.3-1.5-1.3-2.8-2.7-2c-7.2,4.1-16,6.5-25.4,6.5C148.9,273.2,140.1,270.9,132.9,266.8z" id="XMLID_340_" filter="" opacity="0.9"/></g></g></g><g id="XMLID_332_" filter="" opacity="0.9"><g id="XMLID_335_" filter="" opacity="0.9"><path class="st1" d="M121,235.2c-1.1,0-2.2-0.3-3.3-0.9c-3-1.8-4-5.7-2.2-8.8c10.8-18.2,30.4-30.3,49.2-29.9     c3.5,0.1,6.4,3,6.3,6.5c-0.1,3.5-2.9,6.3-6.4,6.3c-0.2,0-0.4,0-0.6,0c-14.1,0-29.1,9.4-37.4,23.6     C125.3,234,123.2,235.2,121,235.2z" id="XMLID_336_" filter="" opacity="0.9"/></g><g id="XMLID_333_" filter="" opacity="0.9"><path class="st1" d="M391,235.2c-2.2,0-4.3-1.1-5.5-3.1c-8.4-14.2-23.4-23.6-37.5-23.6c-0.2,0-0.4,0-0.6,0     c-3.5,0-6.4-2.8-6.4-6.3c-0.1-3.5,2.8-6.5,6.3-6.5c18.5-0.4,38.4,11.7,49.2,29.9c1.8,3,0.8,7-2.3,8.8     C393.3,234.9,392.1,235.2,391,235.2z" id="XMLID_334_" filter="" opacity="0.9"/></g></g><g id="XMLID_329_" filter="" opacity="0.9"><g id="XMLID_330_" filter="" opacity="0.9"><path class="st1" d="M406.6,329.8c14.8,8.5,26.5,20.3,32.1,36.8c5.5,15.8,2.2,35.5-11.1,45.7     c-11.8,9-29.1,8.6-42.4,1.7c-21.6-11.2-36-37.6-44.6-59.4c-7.1-17.8-17-30.2-31.4-40.8c-3.3-2.4-1.4-7.6,2.6-7.2     C342,309.5,379.5,314.2,406.6,329.8z" id="XMLID_331_" filter="" opacity="0.9"/></g></g></g><path fill="none" fill-opacity="1" stroke="#d9c6e6" stroke-opacity="1" stroke-width="13" stroke-dasharray="none" stroke-linejoin="miter" stroke-linecap="butt" stroke-dashoffset="" fill-rule="nonzero" opacity="1" marker-start="" marker-mid="" marker-end="" d="M58.777777751523594,255.25198376840976 C58.777777751523594,146.93218300295294 146.8653520571072,59.19313898177899 255.6154455144591,59.19313898177899 C364.3655290084437,59.19313898177899 451.7150768503609,149.89577612647136 451.7150768503609,258.21558689406504 C451.7150768503609,366.5353876595218 365.8415819357764,451.3108385571773 257.0914984417918,451.3108385571773 C148.34140498444,451.3108385571773 58.777777751523594,363.5717945360034 58.777777751523594,255.25198376840976 z" id="svg_3" class=""/><path fill="#a898b3" fill-opacity="1" stroke="#a898b3" stroke-opacity="1" stroke-width="13" stroke-dasharray="none" stroke-linejoin="miter" stroke-linecap="butt" stroke-dashoffset="" fill-rule="nonzero" opacity="1" marker-start="" marker-mid="" marker-end="" d="M379.12588,349.06125C392.30641,318.07387 412.45364,287.5861 404.92997,264.6887C397.40629,241.7913 449.42875,326.64261 448.95924,356.8145C448.48973,386.98638 436.86105,410.1332 409.27827,409.79925C381.69549,409.4653 365.94535,380.04863 379.12588,349.06125z" id="svg_6" class="" transform="rotate(-49.193084716796875 412.363525390625,387.1090698242188) " filter=""/></g><defs><filter xmlns:inkscape="http://www.inkscape.org/namespaces/inkscape" id="f166" inkscape:menu-tooltip="Draws a black outline around" inkscape:menu="ABCs" inkscape:label="Black outline" color-interpolation-filters="sRGB">
            <feGaussianBlur stdDeviation="2" in="SourceAlpha" result="result0"/>
            <feComposite result="result3" operator="arithmetic" in2="result0" in="SourceGraphic" k2="1" k3="10"/>
            <feComposite k2="1" operator="in" in="result3" result="result4" in2="result3"/>
        </filter></defs></svg>