<svg xmlns="http://www.w3.org/2000/svg" xmlns:xlink="http://www.w3.org/1999/xlink" version="1.1" xml:space="preserve" width="512" height="512"><rect id="backgroundrect" width="100%" height="100%" x="0" y="0" fill="none" stroke="none"/><style type="text/css">
	.st0{fill:#FFCE06;}
	.st1{fill:#221F1F;}
	.st2{fill:#FFFFFF;}
</style><g class="currentLayer"><title>Layer 1</title><path fill="#ffab60" fill-opacity="1" stroke="#ffab60" stroke-opacity="1" stroke-width="12" stroke-dasharray="none" stroke-linejoin="round" stroke-linecap="butt" stroke-dashoffset="" fill-rule="nonzero" opacity="1" marker-start="" marker-mid="" marker-end="" d="M58.814814985699485,255.9259182424614 C58.814814985699485,148.12972839059017 146.85901410992508,60.81481461057454 255.55555623859868,60.81481461057454 C364.2520983672722,60.81481461057454 452.29629749149785,148.12972839059017 452.29629749149785,255.9259182424614 C452.29629749149785,363.72210809433255 364.2520983672722,451.0370218743482 255.55555623859868,451.0370218743482 C146.85901410992508,451.0370218743482 58.814814985699485,363.72210809433255 58.814814985699485,255.9259182424614 z" id="svg_3" class=""/><g id="svg_1" class="" opacity="0.9"><path class="st0" d="M256,457.5c-111.1,0-201.5-90.4-201.5-201.5c0-111.1,90.4-201.5,201.5-201.5c111.1,0,201.5,90.4,201.5,201.5   C457.5,367.1,367.1,457.5,256,457.5z M256,64.5C150.4,64.5,64.5,150.4,64.5,256c0,105.6,85.9,191.5,191.5,191.5   c105.6,0,191.5-85.9,191.5-191.5C447.5,150.4,361.6,64.5,256,64.5z" id="svg_2" opacity="0.9"/><path class="st1" d="M356.5,285.8c-60.7-20.5-140.3-20.5-201,0c-6.3,2.1-9.9,9-7.4,15.1   c8.3,20.9,25.6,40,48.1,52.6c17-11.3,37.6-18.1,59.8-18.1c22.3,0,42.8,6.7,59.8,18.1c22.5-12.6,39.8-31.7,48.1-52.6   C366.3,294.7,362.8,287.9,356.5,285.8z" id="XMLID_416_" opacity="0.9"/><path class="st2" d="M196.2,353.5c17.4,9.7,37.9,15.7,59.8,15.7c21.9,0,42.4-5.9,59.8-15.7   c-17-11.3-37.5-18.1-59.8-18.1C233.7,335.4,213.2,342.2,196.2,353.5z" id="XMLID_415_" opacity="0.9"/><g id="XMLID_408_" opacity="0.9"><g id="XMLID_412_" opacity="0.9"><g id="XMLID_413_" opacity="0.9"><path class="st1" d="M385.9,230.7c2,1.3,4.7-0.2,4.7-2.6c0,0,0,0,0-0.1c0-14.3-11.6-26-26-26      c-14.3,0-26,11.6-26,26c0,0,0,0,0,0.1c0,2.4,2.7,3.8,4.7,2.6c6.2-3.8,13.4-6,21.2-6C372.5,224.6,379.7,226.8,385.9,230.7z" id="XMLID_414_" opacity="0.9"/></g></g><g id="XMLID_409_" opacity="0.9"><g id="XMLID_410_" opacity="0.9"><path class="st1" d="M168.6,230.7c2,1.3,4.7-0.2,4.7-2.6c0,0,0,0,0-0.1c0-14.3-11.6-26-26-26      c-14.3,0-26,11.6-26,26c0,0,0,0,0,0.1c0,2.4,2.7,3.8,4.7,2.6c6.2-3.8,13.4-6,21.2-6C155.1,224.6,162.4,226.8,168.6,230.7z" id="XMLID_411_" opacity="0.9"/></g></g></g></g><path fill="none" fill-opacity="1" stroke="#ffab60" stroke-opacity="1" stroke-width="12" stroke-dasharray="none" stroke-linejoin="round" stroke-linecap="butt" stroke-dashoffset="" fill-rule="nonzero" opacity="1" marker-start="" marker-mid="" marker-end="" d="M58.96296286672367,256.4444442987442 C58.96296286672367,147.60466529321934 147.01545111932657,59.4444442987442 255.72222673982395,59.4444442987442 C364.4290023603213,59.4444442987442 452.48149061292423,147.60466529321934 452.48149061292423,256.4444442987442 C452.48149061292423,365.28422330426906 364.4290023603213,453.4444442987442 255.72222673982395,453.4444442987442 C147.01545111932657,453.4444442987442 58.96296286672367,365.28422330426906 58.96296286672367,256.4444442987442 z" id="svg_5" class=""/></g></svg>