<svg xmlns="http://www.w3.org/2000/svg" xmlns:xlink="http://www.w3.org/1999/xlink" style="enable-background:new 0 0 512 512;" version="1.1" xml:space="preserve" width="512" height="512"><rect id="backgroundrect" width="100%" height="100%" x="0" y="0" fill="none" stroke="none"/><style type="text/css">
	.st0{fill:#FFCE06;}
	.st1{fill:#221F1F;}
</style><g class="currentLayer"><title>Layer 1</title><path fill="#fff888" fill-opacity="1" stroke="#222222" stroke-opacity="1" stroke-width="0" stroke-dasharray="none" stroke-linejoin="round" stroke-linecap="butt" stroke-dashoffset="" fill-rule="nonzero" opacity="1" marker-start="" marker-mid="" marker-end="" d="M62.51323364273799,233.8035436660286 C62.51323364273799,123.37773167325616 151.92974465700956,33.93282395911049 262.3204989956164,33.93282395911049 C372.7112533342231,33.93282395911049 462.1277643484948,123.37773167325616 462.1277643484948,233.8035436660286 C462.1277643484948,344.229355658801 372.7112533342231,433.6742633729467 262.3204989956164,433.6742633729467 C151.92974465700956,433.6742633729467 62.51323364273799,344.229355658801 62.51323364273799,233.8035436660286 z" id="svg_3" class=""/><g id="svg_1" class="" fill="none" stroke="none" stroke-width="0" opacity="0.90"><path class="st0" d="M258.96296310424805,436.75925928354263 c-111.1,0 -201.5,-90.4 -201.5,-201.5 c0,-111.1 90.4,-201.5 201.5,-201.5 c111.1,0 201.5,90.4 201.5,201.5 C460.46296310424805,346.35925928354266 370.06296310424807,436.75925928354263 258.96296310424805,436.75925928354263 zM258.96296310424805,43.75925928354263 C153.36296310424805,43.75925928354263 67.46296310424805,129.65925928354264 67.46296310424805,235.25925928354263 S153.36296310424805,426.75925928354263 258.96296310424805,426.75925928354263 c105.6,0 191.5,-85.9 191.5,-191.5 S364.56296310424807,43.75925928354263 258.96296310424805,43.75925928354263 z" id="svg_2" fill="none" stroke="none" stroke-width="0" opacity="0.90"/><g id="XMLID_396_" fill="none" stroke="none" stroke-width="0" opacity="0.90"><g id="XMLID_400_" fill="none" stroke="none" stroke-width="0" opacity="0.90"><g id="XMLID_401_" fill="none" stroke="none" stroke-width="0" opacity="0.90"><path class="st1" d="M372.862963104248,209.95925928354262 c2,1.3 4.7,-0.2 4.7,-2.6 c0,0 0,0 0,-0.1 c0,-14.3 -11.6,-26 -26,-26 c-14.3,0 -26,11.6 -26,26 c0,0 0,0 0,0.1 c0,2.4 2.7,3.8 4.7,2.6 c6.2,-3.8 13.4,-6 21.2,-6 C359.46296310424805,203.85925928354263 366.66296310424804,206.05925928354264 372.862963104248,209.95925928354262 z" id="XMLID_402_" fill="none" stroke="none" stroke-width="0" opacity="0.90"/></g></g><g id="XMLID_397_" fill="none" stroke="none" stroke-width="0" opacity="0.90"><g id="XMLID_398_" fill="none" stroke="none" stroke-width="0" opacity="0.90"><path class="st1" d="M187.56296310424804,209.95925928354262 c2,1.3 4.7,-0.2 4.7,-2.6 c0,0 0,0 0,-0.1 c0,-14.3 -11.6,-26 -26,-26 c-14.3,0 -26,11.6 -26,26 c0,0 0,0 0,0.1 c0,2.4 2.7,3.8 4.7,2.6 c6.2,-3.8 13.4,-6 21.2,-6 C174.06296310424804,203.85925928354263 181.36296310424805,206.05925928354264 187.56296310424804,209.95925928354262 z" id="XMLID_399_" fill="none" stroke="none" stroke-width="0" opacity="0.90"/></g></g></g><g id="XMLID_392_" fill="none" stroke="none" stroke-width="0" opacity="0.90"><g id="XMLID_393_" fill="none" stroke="none" stroke-width="0" opacity="0.90"><g id="XMLID_394_" fill="none" stroke="none" stroke-width="0" opacity="0.90"><path class="st1" d="M260.06296310424807,324.75925928354263 c-32.9,0 -65.4,-12.7 -89.3,-34.9 c-3.9,-3.6 -4.1,-9.7 -0.5,-13.6 c3.6,-3.9 9.7,-4.1 13.6,-0.5 c20.3,18.9 48.1,29.7 76.2,29.7 c27.1,0 54.2,-10.2 74.2,-28 c4,-3.5 10,-3.1 13.6,0.8 c3.5,4 3.1,10 -0.8,13.6 C323.06296310424807,313.1592592835426 292.26296310424806,324.75925928354263 260.06296310424807,324.75925928354263 z" id="XMLID_395_" fill="none" stroke="none" stroke-width="0" opacity="0.90"/></g></g></g></g><path fill="none" stroke="#fff888" stroke-opacity="1" stroke-width="12" stroke-dasharray="none" stroke-linejoin="round" stroke-linecap="butt" stroke-dashoffset="" fill-rule="nonzero" opacity="1" marker-start="" marker-mid="" marker-end="" d="M62.513189818027854,234.54286112454201 C62.513189818027854,126.16408491026777 150.43778584903174,38.37727617670558 258.98666983792526,38.37727617670558 C367.53555382681884,38.37727617670558 455.4601498578229,126.16408491026777 455.4601498578229,234.54286112454201 C455.4601498578229,342.92163733881625 367.53555382681884,430.7084460723784 258.98666983792526,430.7084460723784 C150.43778584903174,430.7084460723784 62.513189818027854,342.92163733881625 62.513189818027854,234.54286112454201 z" class="selected" id="svg_7"/></g></svg>